<svg id="Layer_1" data-name="Layer 1" xmlns="http://www.w3.org/2000/svg" viewBox="0 0 468.7 444.06"><defs><style>.cls-1{fill:#cc699d;}</style></defs><title>Untitled-1</title><path class="cls-1" d="M228.41,55c-2.61.43-5.21.85-7.81,1.24l-7.72,1.55c-2.55.59-5.09,1.23-7.62,1.84s-5,1.47-7.52,2.19a177,177,0,0,0-28.66,11.92,169.79,169.79,0,0,0-66.25,61.94,165.87,165.87,0,0,0-13.32,27.16,165.78,165.78,0,0,0,0,118.13,165.82,165.82,0,0,0,13.33,27.15c1.31,2.17,2.74,4.25,4.1,6.39s2.94,4.12,4.39,6.2,3.11,4,4.66,6,3.3,3.86,4.94,5.8a170.65,170.65,0,0,0,48.15,37.54A176.29,176.29,0,0,0,197.75,382c2.49.72,5,1.51,7.51,2.19s5.07,1.26,7.62,1.84l7.72,1.56c2.6.39,5.2.81,7.81,1.24-2.63,0-5.28,0-7.93-.07l-7.94-.48c-2.64-.26-5.27-.63-7.92-.94s-5.25-.87-7.89-1.31A157.85,157.85,0,0,1,166,376.73a164.89,164.89,0,0,1-53.61-36.12A168.1,168.1,0,0,1,76.3,286.22a170.18,170.18,0,0,1-9.48-31.53,169.55,169.55,0,0,1,0-65.57,167.87,167.87,0,0,1,45.54-85.9A164.81,164.81,0,0,1,166,67.1a157.37,157.37,0,0,1,30.76-9.28c2.64-.44,5.26-.94,7.89-1.32s5.28-.68,7.92-.94l7.94-.48C223.13,55,225.78,55,228.41,55Z"/><path class="cls-1" d="M248.24,388.81q3.91-.65,7.81-1.23l7.72-1.56c2.56-.58,5.09-1.23,7.63-1.84s5-1.47,7.51-2.19a175.41,175.41,0,0,0,28.66-11.92,169.79,169.79,0,0,0,66.25-61.94A167,167,0,0,0,387.15,281a165.66,165.66,0,0,0,0-118.14,166.21,166.21,0,0,0-13.33-27.15c-1.3-2.16-2.73-4.25-4.1-6.39s-2.94-4.12-4.39-6.19-3.11-4-4.66-6-3.29-3.86-4.94-5.8a170.3,170.3,0,0,0-48.15-37.53,174.79,174.79,0,0,0-28.65-11.92c-2.5-.73-5-1.52-7.51-2.2s-5.07-1.26-7.63-1.84l-7.72-1.56c-2.6-.39-5.2-.81-7.81-1.24q4,0,7.93.07l7.95.49c2.64.25,5.27.62,7.92.93s5.25.88,7.89,1.31a158.75,158.75,0,0,1,30.76,9.28,164.85,164.85,0,0,1,53.6,36.12,168.13,168.13,0,0,1,45.54,85.92,169.81,169.81,0,0,1,0,65.57,168.06,168.06,0,0,1-45.54,85.91,165,165,0,0,1-53.6,36.12A158.54,158.54,0,0,1,279.92,386c-2.63.44-5.25.93-7.89,1.32s-5.27.67-7.92.93l-7.94.48C253.52,388.78,250.88,388.8,248.24,388.81Z"/><path class="cls-1" d="M232,55a55.77,55.77,0,0,0-11.67,4.06,57.22,57.22,0,0,0-10.31,6.42l-1.2.92c-.4.31-.77.66-1.15,1l-2.29,2c-.74.68-1.44,1.41-2.17,2.1s-1.45,1.39-2.11,2.16c-1.34,1.5-2.73,2.94-4,4.53l-1.91,2.34-1.79,2.43C184,95.94,177.2,110.79,172,126.1A271.44,271.44,0,0,0,161,173.35a343.33,343.33,0,0,0,0,97.1,270.44,270.44,0,0,0,11.07,47.26c5.17,15.3,11.95,30.15,21.43,43.17l1.79,2.44,1.9,2.33c1.24,1.6,2.63,3,4,4.53.66.77,1.4,1.45,2.11,2.16s1.43,1.42,2.17,2.1l2.29,2c.38.33.75.68,1.14,1l1.21.92a57.4,57.4,0,0,0,10.3,6.43A55.77,55.77,0,0,0,232,388.81a47.45,47.45,0,0,1-6.27-.58L224.2,388a11.66,11.66,0,0,1-1.56-.32l-3.09-.79c-1-.26-2-.69-3-1a28.4,28.4,0,0,1-3-1.18l-2.93-1.33c-1-.49-1.89-1-2.84-1.53-7.57-4.14-14.12-9.93-20-16.22a127.25,127.25,0,0,1-15.3-20.72l-3.2-5.58-3-5.71-2.76-5.8c-.89-1.94-1.7-3.92-2.55-5.89-1.61-4-3.15-7.95-4.54-12-.74-2-1.35-4.05-2-6.08l-1-3.06-.87-3.08a248.41,248.41,0,0,1-5.72-24.93c-1.48-8.39-2.55-16.85-3.33-25.32s-1-17-1.08-25.5.4-17,1.09-25.5,1.84-16.94,3.34-25.33a244.88,244.88,0,0,1,5.72-24.92A220.41,220.41,0,0,1,161,122a173.42,173.42,0,0,1,11.48-23A127.78,127.78,0,0,1,187.8,78.25c5.86-6.29,12.41-12.08,20-16.22.95-.51,1.88-1,2.83-1.53l2.93-1.33a28.56,28.56,0,0,1,3-1.18c1-.34,2-.77,3-1l3.09-.78a10.28,10.28,0,0,1,1.56-.32l1.56-.26A47.48,47.48,0,0,1,232,55Z"/><path class="cls-1" d="M242.37,388.81A55.77,55.77,0,0,0,254,384.75a57.22,57.22,0,0,0,10.31-6.42l1.2-.91c.39-.32.76-.67,1.15-1l2.28-2c.74-.68,1.45-1.4,2.17-2.1s1.45-1.38,2.11-2.15c1.35-1.51,2.74-2.94,4-4.54l1.9-2.33,1.79-2.44c9.48-13,16.27-27.87,21.44-43.17a271.77,271.77,0,0,0,11.07-47.26,338.24,338.24,0,0,0,3.44-48.55,338.16,338.16,0,0,0-3.46-48.55,271.55,271.55,0,0,0-11.07-47.26c-5.18-15.3-12-30.15-21.43-43.17l-1.79-2.43-1.9-2.34c-1.24-1.59-2.63-3-4-4.53-.66-.77-1.39-1.45-2.11-2.16s-1.43-1.42-2.17-2.1l-2.28-2c-.38-.33-.76-.68-1.15-1l-1.2-.92A56.88,56.88,0,0,0,254,59.07,54.94,54.94,0,0,0,242.37,55a45.55,45.55,0,0,1,6.26.59l1.57.25a11.66,11.66,0,0,1,1.56.32l3.09.79c1,.26,2,.69,3,1a28.56,28.56,0,0,1,3,1.18l2.93,1.33c.95.49,1.88,1,2.83,1.53,7.58,4.14,14.13,9.93,20,16.22A127.84,127.84,0,0,1,301.91,99l3.2,5.58,3,5.71,2.76,5.8c.9,1.94,1.7,3.92,2.55,5.89,1.61,4,3.16,7.95,4.55,12,.73,2,1.34,4,2,6.09l.95,3,.87,3.08a243,243,0,0,1,5.72,24.93c1.49,8.39,2.56,16.85,3.33,25.33s1,17,1.08,25.5-.4,17-1.09,25.49-1.84,16.94-3.33,25.33a244.93,244.93,0,0,1-5.73,24.92,217.15,217.15,0,0,1-8.36,24.22,173.24,173.24,0,0,1-11.47,23,127.25,127.25,0,0,1-15.3,20.72c-5.86,6.29-12.4,12.08-20,16.22-.95.51-1.88,1-2.84,1.53l-2.93,1.33a26.37,26.37,0,0,1-3,1.18c-1,.35-2,.78-3,1l-3.1.79a13.31,13.31,0,0,1-1.55.32l-1.57.25A45.55,45.55,0,0,1,242.37,388.81Z"/><path class="cls-1" d="M237.27,55c1.63,13.91,2.71,27.82,3.67,41.73s1.64,27.82,2.21,41.73q1.65,41.72,1.62,83.45t-1.6,83.45c-.57,13.91-1.27,27.81-2.21,41.72s-2.05,27.82-3.69,41.73c-1.63-13.91-2.72-27.82-3.68-41.73s-1.64-27.81-2.21-41.72q-1.65-41.73-1.6-83.45t1.62-83.45c.57-13.91,1.27-27.82,2.21-41.73S235.65,68.91,237.27,55Z"/><path class="cls-1" d="M404.18,221.91c-13.91,1.62-27.82,2.7-41.73,3.66s-27.82,1.64-41.73,2.21q-41.72,1.65-83.45,1.62t-83.45-1.6c-13.91-.57-27.81-1.27-41.72-2.21s-27.82-2.05-41.73-3.68c13.91-1.64,27.82-2.73,41.73-3.69s27.81-1.64,41.72-2.21q41.73-1.65,83.45-1.6T320.72,216c13.91.57,27.82,1.27,41.73,2.21S390.27,220.28,404.18,221.91Z"/><path class="cls-1" d="M383.92,304.17c-12.14,1.63-24.27,2.71-36.4,3.67s-24.27,1.64-36.4,2.21q-36.39,1.65-72.79,1.62t-72.8-1.6c-12.13-.57-24.26-1.27-36.39-2.21s-24.27-2.05-36.4-3.69c12.13-1.64,24.26-2.72,36.4-3.68s24.26-1.65,36.39-2.22q36.41-1.63,72.8-1.6t72.79,1.62c12.13.58,24.27,1.28,36.4,2.21S371.78,302.55,383.92,304.17Z"/><path class="cls-1" d="M380.73,139.64c-12,1.63-24,2.71-36,3.67s-24,1.63-36,2.21q-36,1.65-72,1.62t-72-1.6c-12-.57-24-1.28-36-2.21s-24-2.05-36-3.69c12-1.64,24-2.72,36-3.69s24-1.64,36-2.21q36-1.65,72-1.6t72,1.62c12,.58,24,1.28,36,2.21S368.73,138,380.73,139.64Z"/></svg>